<svg width="74" height="90" viewBox="0 0 74 90" fill="none" xmlns="http://www.w3.org/2000/svg">
<path d="M24 86.4C24 84.7431 25.3431 83.4 27 83.4H47C48.6569 83.4 50 84.7431 50 86.4C50 88.0569 48.6569 89.4 47 89.4H27C25.3431 89.4 24 88.0569 24 86.4Z" fill="#EDF1F5"/>
<path d="M0 30.4C0 28.7431 1.34315 27.4 3 27.4H71C72.6569 27.4 74 28.7431 74 30.4C74 32.0569 72.6569 33.4 71 33.4H3C1.34314 33.4 0 32.0569 0 30.4Z" fill="#EDF1F5"/>
<path d="M0 30.4C0 28.7431 1.34315 27.4 3 27.4H36C37.6569 27.4 39 28.7431 39 30.4C39 32.0569 37.6569 33.4 36 33.4H3C1.34314 33.4 0 32.0569 0 30.4Z" fill="#FB9899"/>
<path d="M0 48.4C0 46.7431 1.34315 45.4 3 45.4H71C72.6569 45.4 74 46.7431 74 48.4C74 50.0569 72.6569 51.4 71 51.4H3C1.34314 51.4 0 50.0569 0 48.4Z" fill="#EDF1F5"/>
<path d="M0 48.4C0 46.7431 1.34315 45.4 3 45.4H48C49.6569 45.4 51 46.7431 51 48.4C51 50.0569 49.6569 51.4 48 51.4H3C1.34314 51.4 0 50.0569 0 48.4Z" fill="#FB9899"/>
<path d="M0 64.4C0 62.7431 1.34315 61.4 3 61.4H71C72.6569 61.4 74 62.7431 74 64.4C74 66.0569 72.6569 67.4 71 67.4H3C1.34314 67.4 0 66.0569 0 64.4Z" fill="#EDF1F5"/>
<path d="M0 64.4C0 62.7431 1.34315 61.4 3 61.4H30C31.6569 61.4 33 62.7431 33 64.4C33 66.0569 31.6569 67.4 30 67.4H3C1.34314 67.4 0 66.0569 0 64.4Z" fill="#FB9899"/>
<path d="M14.04 7.47C13.5733 7.47 13.1533 7.39 12.78 7.23C12.4067 7.06333 12.1133 6.83 11.9 6.53C11.6867 6.23 11.58 5.88 11.58 5.48H12.8C12.8267 5.78 12.9433 6.02667 13.15 6.22C13.3633 6.41333 13.66 6.51 14.04 6.51C14.4333 6.51 14.74 6.41667 14.96 6.23C15.18 6.03667 15.29 5.79 15.29 5.49C15.29 5.25667 15.22 5.06667 15.08 4.92C14.9467 4.77333 14.7767 4.66 14.57 4.58C14.37 4.5 14.09 4.41333 13.73 4.32C13.2767 4.2 12.9067 4.08 12.62 3.96C12.34 3.83333 12.1 3.64 11.9 3.38C11.7 3.12 11.6 2.77333 11.6 2.34C11.6 1.94 11.7 1.59 11.9 1.29C12.1 0.99 12.38 0.76 12.74 0.6C13.1 0.44 13.5167 0.36 13.99 0.36C14.6633 0.36 15.2133 0.53 15.64 0.87C16.0733 1.20333 16.3133 1.66333 16.36 2.25H15.1C15.08 1.99667 14.96 1.78 14.74 1.6C14.52 1.42 14.23 1.33 13.87 1.33C13.5433 1.33 13.2767 1.41333 13.07 1.58C12.8633 1.74667 12.76 1.98667 12.76 2.3C12.76 2.51333 12.8233 2.69 12.95 2.83C13.0833 2.96333 13.25 3.07 13.45 3.15C13.65 3.23 13.9233 3.31667 14.27 3.41C14.73 3.53667 15.1033 3.66333 15.39 3.79C15.6833 3.91667 15.93 4.11333 16.13 4.38C16.3367 4.64 16.44 4.99 16.44 5.43C16.44 5.78333 16.3433 6.11667 16.15 6.43C15.9633 6.74333 15.6867 6.99667 15.32 7.19C14.96 7.37667 14.5333 7.47 14.04 7.47Z" fill="#0D1111"/>
<path d="M17.4052 4.64C17.4052 4.07333 17.5185 3.57667 17.7452 3.15C17.9785 2.71667 18.2985 2.38333 18.7052 2.15C19.1118 1.91667 19.5785 1.8 20.1052 1.8C20.7718 1.8 21.3218 1.96 21.7552 2.28C22.1952 2.59333 22.4918 3.04333 22.6452 3.63H21.4152C21.3152 3.35667 21.1552 3.14333 20.9352 2.99C20.7152 2.83667 20.4385 2.76 20.1052 2.76C19.6385 2.76 19.2652 2.92667 18.9852 3.26C18.7118 3.58667 18.5752 4.04667 18.5752 4.64C18.5752 5.23333 18.7118 5.69667 18.9852 6.03C19.2652 6.36333 19.6385 6.53 20.1052 6.53C20.7652 6.53 21.2018 6.24 21.4152 5.66H22.6452C22.4852 6.22 22.1852 6.66667 21.7452 7C21.3052 7.32667 20.7585 7.49 20.1052 7.49C19.5785 7.49 19.1118 7.37333 18.7052 7.14C18.2985 6.9 17.9785 6.56667 17.7452 6.14C17.5185 5.70667 17.4052 5.20667 17.4052 4.64Z" fill="#0D1111"/>
<path d="M26.6313 1.8C27.0513 1.8 27.4246 1.89 27.7513 2.07C28.0846 2.25 28.3446 2.51667 28.5312 2.87C28.7246 3.22333 28.8213 3.65 28.8213 4.15V7.4H27.6912V4.32C27.6912 3.82667 27.5679 3.45 27.3213 3.19C27.0746 2.92333 26.7379 2.79 26.3113 2.79C25.8846 2.79 25.5446 2.92333 25.2913 3.19C25.0446 3.45 24.9212 3.82667 24.9212 4.32V7.4H23.7812V0H24.9212V2.53C25.1146 2.29667 25.3579 2.11667 25.6513 1.99C25.9513 1.86333 26.2779 1.8 26.6313 1.8Z" fill="#0D1111"/>
<path d="M35.3254 4.51C35.3254 4.71667 35.3121 4.90333 35.2854 5.07H31.0754C31.1087 5.51 31.2721 5.86333 31.5654 6.13C31.8587 6.39667 32.2187 6.53 32.6454 6.53C33.2587 6.53 33.6921 6.27333 33.9454 5.76H35.1754C35.0087 6.26667 34.7054 6.68333 34.2654 7.01C33.8321 7.33 33.2921 7.49 32.6454 7.49C32.1187 7.49 31.6454 7.37333 31.2254 7.14C30.8121 6.9 30.4854 6.56667 30.2454 6.14C30.0121 5.70667 29.8954 5.20667 29.8954 4.64C29.8954 4.07333 30.0087 3.57667 30.2354 3.15C30.4687 2.71667 30.7921 2.38333 31.2054 2.15C31.6254 1.91667 32.1054 1.8 32.6454 1.8C33.1654 1.8 33.6287 1.91333 34.0354 2.14C34.4421 2.36667 34.7587 2.68667 34.9854 3.1C35.2121 3.50667 35.3254 3.97667 35.3254 4.51ZM34.1354 4.15C34.1287 3.73 33.9787 3.39333 33.6854 3.14C33.3921 2.88667 33.0287 2.76 32.5954 2.76C32.2021 2.76 31.8654 2.88667 31.5854 3.14C31.3054 3.38667 31.1387 3.72333 31.0854 4.15H34.1354Z" fill="#0D1111"/>
<path d="M36.0673 4.62C36.0673 4.06667 36.1806 3.57667 36.4073 3.15C36.6406 2.72333 36.9539 2.39333 37.3473 2.16C37.7473 1.92 38.1906 1.8 38.6773 1.8C39.0373 1.8 39.3906 1.88 39.7373 2.04C40.0906 2.19333 40.3706 2.4 40.5773 2.66V0H41.7273V7.4H40.5773V6.57C40.3906 6.83667 40.1306 7.05667 39.7973 7.23C39.4706 7.40333 39.0939 7.49 38.6673 7.49C38.1873 7.49 37.7473 7.37 37.3473 7.13C36.9539 6.88333 36.6406 6.54333 36.4073 6.11C36.1806 5.67 36.0673 5.17333 36.0673 4.62ZM40.5773 4.64C40.5773 4.26 40.4973 3.93 40.3373 3.65C40.1839 3.37 39.9806 3.15667 39.7273 3.01C39.4739 2.86333 39.2006 2.79 38.9073 2.79C38.6139 2.79 38.3406 2.86333 38.0873 3.01C37.8339 3.15 37.6273 3.36 37.4673 3.64C37.3139 3.91333 37.2373 4.24 37.2373 4.62C37.2373 5 37.3139 5.33333 37.4673 5.62C37.6273 5.90667 37.8339 6.12667 38.0873 6.28C38.3473 6.42667 38.6206 6.5 38.9073 6.5C39.2006 6.5 39.4739 6.42667 39.7273 6.28C39.9806 6.13333 40.1839 5.92 40.3373 5.64C40.4973 5.35333 40.5773 5.02 40.5773 4.64Z" fill="#0D1111"/>
<path d="M48.2146 1.89V7.4H47.0746V6.75C46.8946 6.97667 46.6579 7.15667 46.3646 7.29C46.0779 7.41667 45.7713 7.48 45.4446 7.48C45.0113 7.48 44.6213 7.39 44.2746 7.21C43.9346 7.03 43.6646 6.76333 43.4646 6.41C43.2713 6.05667 43.1746 5.63 43.1746 5.13V1.89H44.3046V4.96C44.3046 5.45333 44.4279 5.83333 44.6746 6.1C44.9213 6.36 45.2579 6.49 45.6846 6.49C46.1113 6.49 46.4479 6.36 46.6946 6.1C46.9479 5.83333 47.0746 5.45333 47.0746 4.96V1.89H48.2146Z" fill="#0D1111"/>
<path d="M50.8587 0V7.4H49.7188V0H50.8587Z" fill="#0D1111"/>
<path d="M57.4055 4.51C57.4055 4.71667 57.3921 4.90333 57.3655 5.07H53.1555C53.1888 5.51 53.3521 5.86333 53.6455 6.13C53.9388 6.39667 54.2988 6.53 54.7255 6.53C55.3388 6.53 55.7721 6.27333 56.0255 5.76H57.2555C57.0888 6.26667 56.7855 6.68333 56.3455 7.01C55.9121 7.33 55.3721 7.49 54.7255 7.49C54.1988 7.49 53.7255 7.37333 53.3055 7.14C52.8921 6.9 52.5655 6.56667 52.3255 6.14C52.0921 5.70667 51.9755 5.20667 51.9755 4.64C51.9755 4.07333 52.0888 3.57667 52.3155 3.15C52.5488 2.71667 52.8721 2.38333 53.2855 2.15C53.7055 1.91667 54.1855 1.8 54.7255 1.8C55.2455 1.8 55.7088 1.91333 56.1155 2.14C56.5221 2.36667 56.8388 2.68667 57.0655 3.1C57.2921 3.50667 57.4055 3.97667 57.4055 4.51ZM56.2155 4.15C56.2088 3.73 56.0588 3.39333 55.7655 3.14C55.4721 2.88667 55.1088 2.76 54.6755 2.76C54.2821 2.76 53.9455 2.88667 53.6655 3.14C53.3855 3.38667 53.2188 3.72333 53.1655 4.15H56.2155Z" fill="#0D1111"/>
<path d="M60.5273 7.49C60.094 7.49 59.704 7.41333 59.3573 7.26C59.0173 7.1 58.7473 6.88667 58.5473 6.62C58.3473 6.34667 58.2407 6.04333 58.2273 5.71H59.4073C59.4273 5.94333 59.5373 6.14 59.7373 6.3C59.944 6.45333 60.2007 6.53 60.5073 6.53C60.8273 6.53 61.074 6.47 61.2473 6.35C61.4273 6.22333 61.5173 6.06333 61.5173 5.87C61.5173 5.66333 61.4173 5.51 61.2173 5.41C61.024 5.31 60.714 5.2 60.2873 5.08C59.874 4.96667 59.5373 4.85667 59.2773 4.75C59.0173 4.64333 58.7907 4.48 58.5973 4.26C58.4107 4.04 58.3173 3.75 58.3173 3.39C58.3173 3.09667 58.404 2.83 58.5773 2.59C58.7507 2.34333 58.9973 2.15 59.3173 2.01C59.644 1.87 60.0173 1.8 60.4373 1.8C61.064 1.8 61.5673 1.96 61.9473 2.28C62.334 2.59333 62.5407 3.02333 62.5673 3.57H61.4273C61.4073 3.32333 61.3073 3.12667 61.1273 2.98C60.9473 2.83333 60.704 2.76 60.3973 2.76C60.0973 2.76 59.8673 2.81667 59.7073 2.93C59.5473 3.04333 59.4673 3.19333 59.4673 3.38C59.4673 3.52667 59.5207 3.65 59.6273 3.75C59.734 3.85 59.864 3.93 60.0173 3.99C60.1707 4.04333 60.3973 4.11333 60.6973 4.2C61.0973 4.30667 61.424 4.41667 61.6773 4.53C61.9373 4.63667 62.1607 4.79667 62.3473 5.01C62.534 5.22333 62.6307 5.50667 62.6373 5.86C62.6373 6.17333 62.5507 6.45333 62.3773 6.7C62.204 6.94667 61.9573 7.14 61.6373 7.28C61.324 7.42 60.954 7.49 60.5273 7.49Z" fill="#0D1111"/>
</svg>
